<mxfile host="Electron" modified="2024-03-20T14:04:23.847Z" agent="Mozilla/5.0 (Macintosh; Intel Mac OS X 10_15_7) AppleWebKit/537.36 (KHTML, like Gecko) draw.io/24.0.4 Chrome/120.0.6099.109 Electron/28.1.0 Safari/537.36" etag="n13UAsoKvyzdPrhyvnWu" version="24.0.4" type="device">
  <diagram name="Page-1" id="hR99lc5iRiE-MBo0WPXJ">
    <mxGraphModel dx="2420" dy="1163" grid="1" gridSize="10" guides="1" tooltips="1" connect="1" arrows="1" fold="1" page="1" pageScale="1" pageWidth="850" pageHeight="1100" math="0" shadow="0">
      <root>
        <mxCell id="0" />
        <mxCell id="1" parent="0" />
        <mxCell id="ig-4DhNCZ6ZqjmOTRuHC-60" value="" style="rounded=0;whiteSpace=wrap;html=1;fillColor=none;fontColor=#000000;strokeColor=#C73500;dashed=1;dashPattern=1 1;strokeWidth=3;" parent="1" vertex="1">
          <mxGeometry x="250" y="520" width="350" height="90" as="geometry" />
        </mxCell>
        <mxCell id="ig-4DhNCZ6ZqjmOTRuHC-59" value="" style="rounded=0;whiteSpace=wrap;html=1;fillColor=none;fontColor=#ffffff;strokeColor=#006EAF;dashed=1;dashPattern=1 1;strokeWidth=3;" parent="1" vertex="1">
          <mxGeometry x="250" y="420.85" width="350" height="90" as="geometry" />
        </mxCell>
        <mxCell id="ig-4DhNCZ6ZqjmOTRuHC-1" value="" style="whiteSpace=wrap;html=1;aspect=fixed;fillColor=none;dashed=1;strokeWidth=2;" parent="1" vertex="1">
          <mxGeometry x="-230" y="80" width="880" height="880" as="geometry" />
        </mxCell>
        <mxCell id="ig-4DhNCZ6ZqjmOTRuHC-2" value="&lt;b&gt;&lt;font style=&quot;font-size: 14px;&quot;&gt;Account Service&lt;/font&gt;&lt;/b&gt;" style="text;html=1;strokeColor=#6c8ebf;fillColor=#dae8fc;align=center;verticalAlign=middle;whiteSpace=wrap;rounded=0;" parent="1" vertex="1">
          <mxGeometry x="530" y="90" width="120" height="30" as="geometry" />
        </mxCell>
        <mxCell id="ig-4DhNCZ6ZqjmOTRuHC-4" value="" style="endArrow=classic;html=1;rounded=0;entryX=0;entryY=0.25;entryDx=0;entryDy=0;fillColor=#d5e8d4;strokeColor=#82b366;strokeWidth=2;" parent="1" target="ig-4DhNCZ6ZqjmOTRuHC-3" edge="1">
          <mxGeometry width="50" height="50" relative="1" as="geometry">
            <mxPoint x="-250" y="425" as="sourcePoint" />
            <mxPoint x="450" y="330" as="targetPoint" />
          </mxGeometry>
        </mxCell>
        <mxCell id="ig-4DhNCZ6ZqjmOTRuHC-19" value="" style="edgeStyle=orthogonalEdgeStyle;rounded=0;orthogonalLoop=1;jettySize=auto;html=1;" parent="1" source="ig-4DhNCZ6ZqjmOTRuHC-3" target="ig-4DhNCZ6ZqjmOTRuHC-18" edge="1">
          <mxGeometry relative="1" as="geometry" />
        </mxCell>
        <mxCell id="ig-4DhNCZ6ZqjmOTRuHC-3" value="API Controller" style="rounded=1;whiteSpace=wrap;html=1;fillColor=#d5e8d4;strokeColor=#82b366;" parent="1" vertex="1">
          <mxGeometry x="-80" y="390" width="120" height="140" as="geometry" />
        </mxCell>
        <mxCell id="ig-4DhNCZ6ZqjmOTRuHC-5" value="GET/ Create Account" style="text;html=1;strokeColor=none;fillColor=none;align=center;verticalAlign=middle;whiteSpace=wrap;rounded=0;" parent="1" vertex="1">
          <mxGeometry x="-230" y="399" width="150" height="30" as="geometry" />
        </mxCell>
        <mxCell id="ig-4DhNCZ6ZqjmOTRuHC-6" value="" style="endArrow=classic;html=1;rounded=0;entryX=0;entryY=0.5;entryDx=0;entryDy=0;fillColor=#d5e8d4;strokeColor=#82b366;strokeWidth=2;" parent="1" target="ig-4DhNCZ6ZqjmOTRuHC-3" edge="1">
          <mxGeometry width="50" height="50" relative="1" as="geometry">
            <mxPoint x="-240" y="460" as="sourcePoint" />
            <mxPoint x="-140" y="470" as="targetPoint" />
          </mxGeometry>
        </mxCell>
        <mxCell id="ig-4DhNCZ6ZqjmOTRuHC-8" value="" style="rounded=1;whiteSpace=wrap;html=1;fillColor=none;" parent="1" vertex="1">
          <mxGeometry x="40" y="270" width="580" height="440" as="geometry" />
        </mxCell>
        <mxCell id="ig-4DhNCZ6ZqjmOTRuHC-7" value="POST/ Claim Handle" style="text;html=1;strokeColor=none;fillColor=none;align=center;verticalAlign=middle;whiteSpace=wrap;rounded=0;" parent="1" vertex="1">
          <mxGeometry x="-219" y="438" width="120" height="30" as="geometry" />
        </mxCell>
        <mxCell id="ig-4DhNCZ6ZqjmOTRuHC-9" value="" style="endArrow=classic;html=1;rounded=0;entryX=0;entryY=0.75;entryDx=0;entryDy=0;fillColor=#d5e8d4;strokeColor=#82b366;strokeWidth=2;" parent="1" target="ig-4DhNCZ6ZqjmOTRuHC-3" edge="1">
          <mxGeometry width="50" height="50" relative="1" as="geometry">
            <mxPoint x="-250" y="495" as="sourcePoint" />
            <mxPoint x="-130" y="490" as="targetPoint" />
          </mxGeometry>
        </mxCell>
        <mxCell id="ig-4DhNCZ6ZqjmOTRuHC-10" value="GET/ Private Graph Keys" style="text;html=1;strokeColor=none;fillColor=none;align=center;verticalAlign=middle;whiteSpace=wrap;rounded=0;" parent="1" vertex="1">
          <mxGeometry x="-220" y="468" width="120" height="30" as="geometry" />
        </mxCell>
        <mxCell id="ig-4DhNCZ6ZqjmOTRuHC-14" style="edgeStyle=orthogonalEdgeStyle;rounded=0;orthogonalLoop=1;jettySize=auto;html=1;entryX=0.5;entryY=0;entryDx=0;entryDy=0;dashed=1;startArrow=classic;startFill=1;" parent="1" target="ig-4DhNCZ6ZqjmOTRuHC-13" edge="1">
          <mxGeometry relative="1" as="geometry">
            <mxPoint x="520" y="400" as="sourcePoint" />
          </mxGeometry>
        </mxCell>
        <mxCell id="ig-4DhNCZ6ZqjmOTRuHC-16" value="" style="edgeStyle=orthogonalEdgeStyle;rounded=0;orthogonalLoop=1;jettySize=auto;html=1;dashed=1;startArrow=classic;startFill=1;" parent="1" source="ig-4DhNCZ6ZqjmOTRuHC-13" target="ig-4DhNCZ6ZqjmOTRuHC-15" edge="1">
          <mxGeometry relative="1" as="geometry" />
        </mxCell>
        <mxCell id="ig-4DhNCZ6ZqjmOTRuHC-13" value="GraphSDK State Manager" style="rounded=1;whiteSpace=wrap;html=1;fillColor=#dae8fc;strokeColor=#6c8ebf;" parent="1" vertex="1">
          <mxGeometry x="460" y="440" width="120" height="60" as="geometry" />
        </mxCell>
        <mxCell id="ig-4DhNCZ6ZqjmOTRuHC-50" style="edgeStyle=orthogonalEdgeStyle;rounded=0;orthogonalLoop=1;jettySize=auto;html=1;entryX=1;entryY=0.5;entryDx=0;entryDy=0;" parent="1" source="ig-4DhNCZ6ZqjmOTRuHC-15" target="ig-4DhNCZ6ZqjmOTRuHC-49" edge="1">
          <mxGeometry relative="1" as="geometry" />
        </mxCell>
        <mxCell id="ig-4DhNCZ6ZqjmOTRuHC-15" value="Frequency Service/ Scanner" style="rounded=1;whiteSpace=wrap;html=1;fillColor=#dae8fc;strokeColor=#6c8ebf;" parent="1" vertex="1">
          <mxGeometry x="460" y="540" width="120" height="60" as="geometry" />
        </mxCell>
        <mxCell id="ig-4DhNCZ6ZqjmOTRuHC-18" value="API Service" style="rounded=1;whiteSpace=wrap;html=1;fillColor=#d5e8d4;strokeColor=#82b366;" parent="1" vertex="1">
          <mxGeometry x="70" y="390" width="120" height="140" as="geometry" />
        </mxCell>
        <mxCell id="ig-4DhNCZ6ZqjmOTRuHC-20" value="&lt;b&gt;NestJS&lt;/b&gt;" style="text;html=1;strokeColor=none;fillColor=none;align=center;verticalAlign=middle;whiteSpace=wrap;rounded=0;" parent="1" vertex="1">
          <mxGeometry x="510" y="280" width="60" height="30" as="geometry" />
        </mxCell>
        <mxCell id="ig-4DhNCZ6ZqjmOTRuHC-36" value="" style="html=1;verticalLabelPosition=bottom;align=center;labelBackgroundColor=#ffffff;verticalAlign=top;strokeWidth=2;strokeColor=#0080F0;shadow=0;dashed=0;shape=mxgraph.ios7.icons.mail;" parent="1" vertex="1">
          <mxGeometry x="310" y="429" width="30" height="16.5" as="geometry" />
        </mxCell>
        <mxCell id="ig-4DhNCZ6ZqjmOTRuHC-37" value="Account Change Request Processor" style="rounded=1;whiteSpace=wrap;html=1;fillColor=#dae8fc;strokeColor=#6c8ebf;" parent="1" vertex="1">
          <mxGeometry x="270" y="445.5" width="120" height="60" as="geometry" />
        </mxCell>
        <mxCell id="ig-4DhNCZ6ZqjmOTRuHC-38" style="edgeStyle=orthogonalEdgeStyle;rounded=0;orthogonalLoop=1;jettySize=auto;html=1;entryX=1;entryY=0.338;entryDx=0;entryDy=0;entryPerimeter=0;startArrow=classic;startFill=1;endArrow=none;endFill=0;" parent="1" edge="1">
          <mxGeometry relative="1" as="geometry">
            <mxPoint x="310" y="436.75" as="sourcePoint" />
            <mxPoint x="190" y="436.77" as="targetPoint" />
          </mxGeometry>
        </mxCell>
        <mxCell id="ig-4DhNCZ6ZqjmOTRuHC-46" value="" style="edgeStyle=orthogonalEdgeStyle;rounded=0;orthogonalLoop=1;jettySize=auto;html=1;startArrow=classic;startFill=1;endArrow=none;endFill=0;" parent="1" source="ig-4DhNCZ6ZqjmOTRuHC-39" target="ig-4DhNCZ6ZqjmOTRuHC-37" edge="1">
          <mxGeometry relative="1" as="geometry" />
        </mxCell>
        <mxCell id="ig-4DhNCZ6ZqjmOTRuHC-39" value="" style="html=1;verticalLabelPosition=bottom;align=center;labelBackgroundColor=#ffffff;verticalAlign=top;strokeWidth=2;strokeColor=#0080F0;shadow=0;dashed=0;shape=mxgraph.ios7.icons.mail;" parent="1" vertex="1">
          <mxGeometry x="310" y="523.5" width="30" height="16.5" as="geometry" />
        </mxCell>
        <mxCell id="ig-4DhNCZ6ZqjmOTRuHC-44" style="edgeStyle=orthogonalEdgeStyle;rounded=0;orthogonalLoop=1;jettySize=auto;html=1;" parent="1" source="ig-4DhNCZ6ZqjmOTRuHC-40" target="ig-4DhNCZ6ZqjmOTRuHC-15" edge="1">
          <mxGeometry relative="1" as="geometry" />
        </mxCell>
        <mxCell id="ig-4DhNCZ6ZqjmOTRuHC-40" value="Account Publishing Processor" style="rounded=1;whiteSpace=wrap;html=1;fillColor=#dae8fc;strokeColor=#6c8ebf;" parent="1" vertex="1">
          <mxGeometry x="270" y="540" width="120" height="60" as="geometry" />
        </mxCell>
        <mxCell id="ig-4DhNCZ6ZqjmOTRuHC-41" style="edgeStyle=orthogonalEdgeStyle;rounded=0;orthogonalLoop=1;jettySize=auto;html=1;entryX=0.083;entryY=0.592;entryDx=0;entryDy=0;entryPerimeter=0;dashed=1;startArrow=classic;startFill=1;" parent="1" source="ig-4DhNCZ6ZqjmOTRuHC-37" target="ig-4DhNCZ6ZqjmOTRuHC-13" edge="1">
          <mxGeometry relative="1" as="geometry" />
        </mxCell>
        <mxCell id="ig-4DhNCZ6ZqjmOTRuHC-48" value="" style="html=1;verticalLabelPosition=bottom;align=center;labelBackgroundColor=#ffffff;verticalAlign=top;strokeWidth=2;strokeColor=#0080F0;shadow=0;dashed=0;shape=mxgraph.ios7.icons.mail;" parent="1" vertex="1">
          <mxGeometry x="310" y="620" width="30" height="16.5" as="geometry" />
        </mxCell>
        <mxCell id="ig-4DhNCZ6ZqjmOTRuHC-49" value="Graph Notification Processor/ Webhook publisher" style="rounded=1;whiteSpace=wrap;html=1;fillColor=#dae8fc;strokeColor=#6c8ebf;" parent="1" vertex="1">
          <mxGeometry x="270" y="636.5" width="120" height="60" as="geometry" />
        </mxCell>
        <mxCell id="ig-4DhNCZ6ZqjmOTRuHC-51" value="" style="endArrow=classic;html=1;rounded=0;exitX=0.568;exitY=-0.002;exitDx=0;exitDy=0;exitPerimeter=0;fillColor=#008a00;strokeColor=#005700;strokeWidth=3;" parent="1" edge="1">
          <mxGeometry width="50" height="50" relative="1" as="geometry">
            <mxPoint x="326" y="690" as="sourcePoint" />
            <mxPoint x="324" y="952" as="targetPoint" />
          </mxGeometry>
        </mxCell>
        <mxCell id="ig-4DhNCZ6ZqjmOTRuHC-52" value="Publish to webhook endpoints or subscribers if using pubsub mechanism" style="text;html=1;strokeColor=#82b366;fillColor=#d5e8d4;align=center;verticalAlign=middle;whiteSpace=wrap;rounded=0;" parent="1" vertex="1">
          <mxGeometry x="130" y="960" width="420" height="30" as="geometry" />
        </mxCell>
        <mxCell id="ig-4DhNCZ6ZqjmOTRuHC-55" style="edgeStyle=orthogonalEdgeStyle;rounded=0;orthogonalLoop=1;jettySize=auto;html=1;entryX=0.033;entryY=0.303;entryDx=0;entryDy=0;entryPerimeter=0;exitX=0.5;exitY=1;exitDx=0;exitDy=0;" parent="1" source="ig-4DhNCZ6ZqjmOTRuHC-18" target="ig-4DhNCZ6ZqjmOTRuHC-48" edge="1">
          <mxGeometry relative="1" as="geometry" />
        </mxCell>
        <mxCell id="ig-4DhNCZ6ZqjmOTRuHC-56" value="" style="image;aspect=fixed;html=1;points=[];align=center;fontSize=12;image=img/lib/azure2/management_governance/Resource_Graph_Explorer.svg;" parent="1" vertex="1">
          <mxGeometry x="553" y="130" width="67" height="64" as="geometry" />
        </mxCell>
      </root>
    </mxGraphModel>
  </diagram>
</mxfile>
